<?xml version="1.0" standalone="no"?>
<!DOCTYPE svg PUBLIC "-//W3C//DTD SVG 20010904//EN"
 "http://www.w3.org/TR/2001/REC-SVG-20010904/DTD/svg10.dtd">
<svg version="1.0" xmlns="http://www.w3.org/2000/svg"
 width="260.000000pt" height="260.000000pt" viewBox="0 0 260.000000 260.000000"
 preserveAspectRatio="xMidYMid meet">
<metadata>
Created by potrace 1.11, written by Peter Selinger 2001-2013
</metadata>
<g transform="translate(0.000000,260.000000) scale(0.100000,-0.100000)"
fill="#000000" stroke="none">
<path d="M1145 2589 c-129 -18 -193 -34 -299 -74 -500 -187 -837 -664 -840
-1190 -1 -155 6 -225 34 -336 111 -439 432 -782 862 -923 101 -33 122 -38 230
-53 110 -15 318 -8 428 16 120 26 269 79 341 122 28 16 52 29 55 29 6 0 117
75 147 99 70 56 179 168 233 241 109 144 216 385 239 537 3 21 8 50 11 63 9
43 11 252 3 330 -9 78 -49 250 -71 303 -82 195 -171 332 -302 463 -189 188
-425 313 -679 360 -90 17 -314 24 -392 13z"/>
</g>
</svg>
